<mxfile host="app.diagrams.net" agent="Mozilla/5.0 (Macintosh; Intel Mac OS X 10_15_7) AppleWebKit/537.36 (KHTML, like Gecko) Chrome/137.0.0.0 Safari/537.36" version="27.1.4">
  <diagram name="Page-1" id="UczqkDOHtyzCEMkG7ZL6">
    <mxGraphModel dx="918" dy="1757" grid="1" gridSize="10" guides="1" tooltips="1" connect="1" arrows="1" fold="1" page="1" pageScale="1" pageWidth="850" pageHeight="1100" math="0" shadow="0">
      <root>
        <mxCell id="0" />
        <mxCell id="1" parent="0" />
        <mxCell id="xKuFrh_kejnzbbuU0agX-1" value="Mint" style="ellipse;whiteSpace=wrap;html=1;aspect=fixed;strokeWidth=2;fontSize=14;fillColor=#d5e8d4;strokeColor=#82b366;" parent="1" vertex="1">
          <mxGeometry x="182" y="-382" width="80" height="80" as="geometry" />
        </mxCell>
        <mxCell id="xKuFrh_kejnzbbuU0agX-2" value="Hold" style="ellipse;whiteSpace=wrap;html=1;aspect=fixed;strokeWidth=2;fontSize=14;fillColor=#f8cecc;strokeColor=#b85450;" parent="1" vertex="1">
          <mxGeometry x="80" y="-280" width="80" height="80" as="geometry" />
        </mxCell>
        <mxCell id="xKuFrh_kejnzbbuU0agX-3" value="LP" style="ellipse;whiteSpace=wrap;html=1;aspect=fixed;strokeWidth=2;fontSize=14;fillColor=#dae8fc;strokeColor=#6c8ebf;" parent="1" vertex="1">
          <mxGeometry x="180" y="-180" width="80" height="80" as="geometry" />
        </mxCell>
        <mxCell id="xKuFrh_kejnzbbuU0agX-4" value="Burn" style="ellipse;whiteSpace=wrap;html=1;aspect=fixed;strokeWidth=2;fontSize=14;fillColor=#CCCCCC;" parent="1" vertex="1">
          <mxGeometry x="280" y="-280" width="80" height="80" as="geometry" />
        </mxCell>
        <mxCell id="xKuFrh_kejnzbbuU0agX-5" value="" style="curved=1;endArrow=classic;html=1;rounded=0;strokeWidth=1;fontSize=14;exitX=0;exitY=0.5;exitDx=0;exitDy=0;entryX=0.5;entryY=0;entryDx=0;entryDy=0;" parent="1" source="xKuFrh_kejnzbbuU0agX-1" target="xKuFrh_kejnzbbuU0agX-2" edge="1">
          <mxGeometry width="50" height="50" relative="1" as="geometry">
            <mxPoint x="100" y="-360" as="sourcePoint" />
            <mxPoint x="150" y="-410" as="targetPoint" />
            <Array as="points">
              <mxPoint x="150" y="-350" />
            </Array>
          </mxGeometry>
        </mxCell>
        <mxCell id="xKuFrh_kejnzbbuU0agX-6" value="100%" style="edgeLabel;html=1;align=center;verticalAlign=middle;resizable=0;points=[];fontSize=14;" parent="xKuFrh_kejnzbbuU0agX-5" vertex="1" connectable="0">
          <mxGeometry x="-0.0075" y="9" relative="1" as="geometry">
            <mxPoint as="offset" />
          </mxGeometry>
        </mxCell>
        <mxCell id="xKuFrh_kejnzbbuU0agX-7" value="" style="curved=1;endArrow=classic;html=1;rounded=0;strokeWidth=1;fontSize=14;exitX=0.288;exitY=0.038;exitDx=0;exitDy=0;entryX=0;entryY=0.5;entryDx=0;entryDy=0;exitPerimeter=0;" parent="1" source="xKuFrh_kejnzbbuU0agX-2" target="xKuFrh_kejnzbbuU0agX-2" edge="1">
          <mxGeometry width="50" height="50" relative="1" as="geometry">
            <mxPoint x="40" y="-325" as="sourcePoint" />
            <mxPoint x="70" y="-240" as="targetPoint" />
            <Array as="points">
              <mxPoint x="100" y="-300" />
              <mxPoint x="60" y="-320" />
              <mxPoint x="30" y="-300" />
              <mxPoint x="30" y="-270" />
              <mxPoint x="40" y="-250" />
            </Array>
          </mxGeometry>
        </mxCell>
        <mxCell id="xKuFrh_kejnzbbuU0agX-8" value="~18%" style="edgeLabel;html=1;align=center;verticalAlign=middle;resizable=0;points=[];fontSize=14;" parent="xKuFrh_kejnzbbuU0agX-7" vertex="1" connectable="0">
          <mxGeometry x="-0.1742" y="1" relative="1" as="geometry">
            <mxPoint as="offset" />
          </mxGeometry>
        </mxCell>
        <mxCell id="xKuFrh_kejnzbbuU0agX-9" value="" style="curved=1;endArrow=classic;html=1;rounded=0;strokeWidth=1;fontSize=14;entryX=0;entryY=0.5;entryDx=0;entryDy=0;exitX=0.5;exitY=1;exitDx=0;exitDy=0;" parent="1" source="xKuFrh_kejnzbbuU0agX-2" target="xKuFrh_kejnzbbuU0agX-3" edge="1">
          <mxGeometry width="50" height="50" relative="1" as="geometry">
            <mxPoint x="30" y="-150" as="sourcePoint" />
            <mxPoint x="140" y="-120" as="targetPoint" />
            <Array as="points">
              <mxPoint x="130" y="-140" />
            </Array>
          </mxGeometry>
        </mxCell>
        <mxCell id="xKuFrh_kejnzbbuU0agX-10" value="~80%" style="edgeLabel;html=1;align=center;verticalAlign=middle;resizable=0;points=[];fontSize=14;" parent="xKuFrh_kejnzbbuU0agX-9" vertex="1" connectable="0">
          <mxGeometry x="-0.5501" y="6" relative="1" as="geometry">
            <mxPoint x="3" y="10" as="offset" />
          </mxGeometry>
        </mxCell>
        <mxCell id="xKuFrh_kejnzbbuU0agX-11" value="~80%" style="curved=1;endArrow=classic;html=1;rounded=0;strokeWidth=1;fontSize=14;" parent="1" edge="1">
          <mxGeometry x="0.0069" width="50" height="50" relative="1" as="geometry">
            <mxPoint x="186" y="-114" as="sourcePoint" />
            <mxPoint x="256" y="-124" as="targetPoint" />
            <Array as="points">
              <mxPoint x="176" y="-105" />
              <mxPoint x="186" y="-75" />
              <mxPoint x="198" y="-65" />
              <mxPoint x="256" y="-65" />
              <mxPoint x="276" y="-95" />
            </Array>
            <mxPoint as="offset" />
          </mxGeometry>
        </mxCell>
        <mxCell id="xKuFrh_kejnzbbuU0agX-12" value="" style="curved=1;endArrow=classic;html=1;rounded=0;strokeWidth=1;fontSize=14;entryX=0.963;entryY=0.675;entryDx=0;entryDy=0;entryPerimeter=0;" parent="1" source="xKuFrh_kejnzbbuU0agX-3" target="xKuFrh_kejnzbbuU0agX-2" edge="1">
          <mxGeometry width="50" height="50" relative="1" as="geometry">
            <mxPoint x="200" y="-180" as="sourcePoint" />
            <mxPoint x="160" y="-220" as="targetPoint" />
            <Array as="points">
              <mxPoint x="220" y="-180" />
              <mxPoint x="210" y="-200" />
              <mxPoint x="180" y="-220" />
            </Array>
          </mxGeometry>
        </mxCell>
        <mxCell id="xKuFrh_kejnzbbuU0agX-13" value="~20%" style="edgeLabel;html=1;align=center;verticalAlign=middle;resizable=0;points=[];fontSize=14;" parent="xKuFrh_kejnzbbuU0agX-12" vertex="1" connectable="0">
          <mxGeometry x="0.0643" y="-1" relative="1" as="geometry">
            <mxPoint x="3" y="4" as="offset" />
          </mxGeometry>
        </mxCell>
        <mxCell id="xKuFrh_kejnzbbuU0agX-14" value="" style="curved=1;endArrow=classic;html=1;rounded=0;strokeWidth=1;fontSize=14;exitX=0.95;exitY=0.275;exitDx=0;exitDy=0;exitPerimeter=0;" parent="1" source="xKuFrh_kejnzbbuU0agX-2" target="xKuFrh_kejnzbbuU0agX-4" edge="1">
          <mxGeometry width="50" height="50" relative="1" as="geometry">
            <mxPoint x="210" y="-240" as="sourcePoint" />
            <mxPoint x="260" y="-290" as="targetPoint" />
            <Array as="points">
              <mxPoint x="210" y="-290" />
            </Array>
          </mxGeometry>
        </mxCell>
        <mxCell id="xKuFrh_kejnzbbuU0agX-15" value="~2%" style="edgeLabel;html=1;align=center;verticalAlign=middle;resizable=0;points=[];fontSize=14;" parent="xKuFrh_kejnzbbuU0agX-14" vertex="1" connectable="0">
          <mxGeometry x="0.1117" y="-11" relative="1" as="geometry">
            <mxPoint as="offset" />
          </mxGeometry>
        </mxCell>
        <mxCell id="xKuFrh_kejnzbbuU0agX-16" value="&lt;span style=&quot;font-size: 20px;&quot;&gt;&lt;b&gt;Finite State Machine&lt;/b&gt;&lt;/span&gt;" style="text;html=1;strokeColor=none;fillColor=none;align=center;verticalAlign=middle;whiteSpace=wrap;rounded=0;strokeWidth=2;" parent="1" vertex="1">
          <mxGeometry x="115" y="-420" width="220" height="30" as="geometry" />
        </mxCell>
      </root>
    </mxGraphModel>
  </diagram>
</mxfile>
